<svg viewBox="0 0 100 100" xmlns="http://www.w3.org/2000/svg">
  <g transform="translate(50, 50)">
    <path d="M -35,-35 L -30,-35 L -30,-30" stroke="#00d4ff" stroke-width="2.5" fill="none"/>
    <path d="M -35,35 L -30,35 L -30,30" stroke="#00d4ff" stroke-width="2.5" fill="none"/>
    <path d="M 35,-35 L 30,-35 L 30,-30" stroke="#ff00ff" stroke-width="2.5" fill="none"/>
    <path d="M 35,35 L 30,35 L 30,30" stroke="#ff00ff" stroke-width="2.5" fill="none"/>
    
    <line x1="-25" y1="-15" x2="25" y2="-15" stroke="#00d4ff" stroke-width="1" opacity="0.4"/>
    <line x1="-25" y1="15" x2="25" y2="15" stroke="#ff00ff" stroke-width="1" opacity="0.4"/>
    
    <!-- Explanation: Document with lightbulb/understanding symbol -->
    <rect x="-12" y="-16" width="24" height="32" fill="none" stroke="#00d4ff" stroke-width="2.5"/>
    <path d="M 12,-16 L 12,-10 L 6,-10" fill="none" stroke="#ff00ff" stroke-width="2"/>
    <path d="M 6,-10 L 12,-10 L 12,-16" fill="#ff00ff" opacity="0.3"/>
    
    <!-- Lightbulb for understanding -->
    <circle cx="0" cy="-2" r="6" fill="none" stroke="#ff00ff" stroke-width="2"/>
    <path d="M -3,4 L -3,7 L 3,7 L 3,4" fill="none" stroke="#00d4ff" stroke-width="1.5"/>
    <line x1="-1" y1="8" x2="1" y2="8" stroke="#00d4ff" stroke-width="1.5"/>
    
    <!-- Light rays -->
    <line x1="-8" y1="-2" x2="-10" y2="-2" stroke="#ff00ff" stroke-width="1.5" opacity="0.6"/>
    <line x1="8" y1="-2" x2="10" y2="-2" stroke="#ff00ff" stroke-width="1.5" opacity="0.6"/>
    <line x1="-5" y1="-7" x2="-7" y2="-9" stroke="#ff00ff" stroke-width="1.5" opacity="0.6"/>
    <line x1="5" y1="-7" x2="7" y2="-9" stroke="#ff00ff" stroke-width="1.5" opacity="0.6"/>
    
    <line x1="-12" y1="-10" x2="-12" y2="16" stroke="#ff00ff" stroke-width="3" opacity="0.4"/>
    
    <circle cx="-28" cy="0" r="2" fill="#00d4ff" opacity="0.8"/>
    <circle cx="28" cy="0" r="2" fill="#ff00ff" opacity="0.8"/>
  </g>
</svg>